# xmcd
# 
# Track frame offsets:
#     182
#     12572
#     25470
#     41472
#     56290
#     68762
#     82200
#     95712
#     106122
#     120955
#     132050
#     145142
#     157710
#     170817
#     181012
# 
# Disc length: 2554
# 
# Revision: 3
# Processed by: cddbd v1.5.2PL0 Copyright (c) Steve Scherf et al.
# Submitted via: fre:ac v1.0.31
# 
DISCID=bc09f80f
DTITLE=Columbia Blues - Howlin' Wolf Change My Way
DYEAR=1975
DGENRE=Blues
TTITLE0=Mr. Airplane Man
TTITLE1=Love Me Darlin'
TTITLE2=Change My Way
TTITLE3=I Walked From Dallas
TTITLE4=I Better Go Now
TTITLE5=New Crawlin' King Snake
TTITLE6=Just Like I Treat You
TTITLE7=I've Been Abused
TTITLE8=Don't Laugh At Me
TTITLE9=I Didn't Know
TTITLE10=I Ain't Superstitious
TTITLE11=Howlin' Blues
TTITLE12=My Mind Is Ramblin'
TTITLE13=Do The Do
TTITLE14=Hidden Charms
EXTD=YEAR: 1975
EXTT0=
EXTT1=
EXTT2=
EXTT3=
EXTT4=
EXTT5=
EXTT6=
EXTT7=
EXTT8=
EXTT9=
EXTT10=
EXTT11=
EXTT12=
EXTT13=
EXTT14=
PLAYORDER=
